<svg xmlns="http://www.w3.org/2000/svg" height="16" width="20" viewBox="0 0 640 512"><!--!Font Awesome Free 6.5.1 by @fontawesome - https://fontawesome.com License - https://fontawesome.com/license/free Copyright 2023 Fonticons, Inc.--><path d="M258 273L63.6 467.3c-9.4 9.4-24.6 9.4-33.9 0L7 444.6c-9.4-9.4-9.4-24.5 0-33.9L161 256 7 101.3c-9.3-9.4-9.3-24.5 0-33.9l22.7-22.7c9.4-9.4 24.6-9.4 33.9 0L258 239c9.4 9.4 9.4 24.6 0 33.9zM640 456v-32c0-13.3-10.7-24-24-24H312c-13.3 0-24 10.7-24 24v32c0 13.3 10.7 24 24 24h304c13.3 0 24-10.7 24-24z"/></svg>